<?xml version="1.0" encoding="utf-8"?>
<!-- Generator: Adobe Illustrator 21.0.0, SVG Export Plug-In . SVG Version: 6.00 Build 0)  -->
<svg version="1.1" id="Layer_1" xmlns="http://www.w3.org/2000/svg" xmlns:xlink="http://www.w3.org/1999/xlink" x="0px" y="0px"
	 viewBox="0 0 1043.9 668.4" style="enable-background:new 0 0 1043.9 668.4;" xml:space="preserve">
<style type="text/css">
	.st0{fill:none;stroke:#C6C6C6;stroke-width:3;stroke-miterlimit:10;}
	.st1{fill:#C6C6C6;stroke:#C6C6C6;stroke-miterlimit:10;}
	.st2{fill:#01301D;stroke:#C6C6C6;stroke-miterlimit:10;}
	.st3{font-family:'ArialMT';}
	.st4{font-size:63.1707px;}
	.st5{fill:none;stroke:#C6C6C6;stroke-miterlimit:10;}
</style>
<rect x="14.6" y="7.6" class="st0" width="1021" height="654"/>
<line class="st0" x1="522.6" y1="7.1" x2="522.6" y2="663.1"/>
<path class="st0" d="M625.3,327.7c0,56.9-44.5,103.1-99.4,103.1c-54.9,0-99.4-46.2-99.4-103.1c0-56.9,44.5-103.1,99.4-103.1
	C580.9,224.6,625.3,270.8,625.3,327.7z"/>
<path class="st1" d="M534.4,328.6c0,5.3-4.1,9.6-9.3,9.6c-5.1,0-9.3-4.3-9.3-9.6c0-5.3,4.2-9.6,9.3-9.6
	C530.2,319,534.4,323.3,534.4,328.6z"/>
<g>
	<rect x="14.6" y="262.6" class="st0" width="56" height="142"/>
	<rect x="14.6" y="174.6" class="st0" width="125" height="316"/>
</g>
<path class="st0" d="M139.6,267.1c0,0,29.4,33.5,29.5,61.2c0.1,38.4-29.5,61.2-29.5,61.2V267.1z"/>
<g>
	<rect x="980.6" y="260.6" class="st0" width="55" height="141"/>
	<rect x="908.6" y="173.6" class="st0" width="127" height="315"/>
</g>
<path class="st0" d="M908.6,269.6c0,0-29.4,33.5-29.5,61.2c-0.1,38.4,29.5,61.2,29.5,61.2V269.6z"/>
<path class="st0" d="M14.6,7.7v34.5c0,0,17.4-2.8,25.8-11.7C44.6,26,49.1,7,49.1,7L14.6,7.7z"/>
<path class="st0" d="M1035.6,7.7v34.5c0,0-14.8-2.8-23.3-11.7c-4.2-4.4-10-23.4-10-23.4L1035.6,7.7z"/>
<path class="st0" d="M14.6,660.1v-34.5c0,0,17.4,2.8,25.8,11.7c4.2,4.4,8.7,23.4,8.7,23.4L14.6,660.1z"/>
<path class="st0" d="M1035.6,660.1v-34.5c0,0-14.8,2.8-23.3,11.7c-4.2,4.4-10,23.4-10,23.4L1035.6,660.1z"/>
<text transform="matrix(0 1.0374 -1 0 798.4746 124.6745)" class="st2 st3 st4">x</text>
<text transform="matrix(0 1.0374 -1 0 798.4746 124.6745)" class="st1 st3 st4">x</text>
<text transform="matrix(0 1.0374 -1 0 1001.0039 315.5935)" class="st2 st3 st4">x</text>
<text transform="matrix(0 1.0374 -1 0 1001.0039 315.5935)" class="st1 st3 st4">x</text>
<text transform="matrix(0 1.0374 -1 0 665.7793 206.1657)" class="st2 st3 st4">x</text>
<text transform="matrix(0 1.0374 -1 0 665.7793 206.1657)" class="st1 st3 st4">x</text>
<text transform="matrix(0 1.0374 -1 0 665.7793 385.9577)" class="st2 st3 st4">x</text>
<text transform="matrix(0 1.0374 -1 0 665.7793 385.9577)" class="st1 st3 st4">x</text>
<text transform="matrix(0 1.0374 -1 0 556.2813 353.9206)" class="st2 st3 st4">x</text>
<text transform="matrix(0 1.0374 -1 0 556.2813 353.9206)" class="st1 st3 st4">x</text>
<text transform="matrix(0 1.0374 -1 0 542.8027 267.1286)" class="st2 st3 st4">x</text>
<text transform="matrix(0 1.0374 -1 0 542.8027 267.1286)" class="st1 st3 st4">x</text>
<text transform="matrix(0 1.0374 -1 0 569.7578 57.4275)" class="st2 st3 st4">x</text>
<text transform="matrix(0 1.0374 -1 0 569.7578 57.4275)" class="st1 st3 st4">x</text>
<text transform="matrix(0 1.0374 -1 0 569.7578 569.446)" class="st2 st3 st4">x</text>
<text transform="matrix(0 1.0374 -1 0 569.7578 569.446)" class="st1 st3 st4">x</text>
<text transform="matrix(0 1.0374 -1 0 854.0645 258.6814)" class="st2 st3 st4">x</text>
<text transform="matrix(0 1.0374 -1 0 854.0645 258.6814)" class="st1 st3 st4">x</text>
<text transform="matrix(0 1.0374 -1 0 842.6602 353.9226)" class="st2 st3 st4">x</text>
<text transform="matrix(0 1.0374 -1 0 842.6602 353.9226)" class="st1 st3 st4">x</text>
<text transform="matrix(0 1.0374 -1 0 798.4746 485.8591)" class="st2 st3 st4">x</text>
<text transform="matrix(0 1.0374 -1 0 798.4746 485.8591)" class="st1 st3 st4">x</text>
<ellipse class="st5" cx="397.9" cy="124.1" rx="11.8" ry="13.1"/>
<path class="st5" d="M509.1,206.3c0,7.2-5.3,13.1-11.8,13.1c-6.5,0-11.8-5.9-11.8-13.1c0-7.2,5.3-13.1,11.8-13.1
	C503.8,193.2,509.1,199,509.1,206.3z"/>
<path class="st5" d="M497.3,443c6.5,0,11.8,5.9,11.8,13.1c0,7.2-5.3,13.1-11.8,13.1c-6.5,0-11.8-5.9-11.8-13.1
	C485.5,448.9,490.8,443,497.3,443"/>
<path class="st5" d="M409.7,548.8c0,7.2-5.3,13.1-11.8,13.1s-11.8-5.9-11.8-13.1c0-7.2,5.3-13.1,11.8-13.1S409.7,541.5,409.7,548.8z
	"/>
<ellipse class="st5" cx="362.6" cy="417.7" rx="11.8" ry="13.1"/>
<ellipse class="st5" cx="362.6" cy="279.7" rx="11.8" ry="13.1"/>
<path class="st5" d="M192.4,267.4c0,7.2-5.3,13.1-11.8,13.1c-6.5,0-11.8-5.9-11.8-13.1c0-7.2,5.3-13.1,11.8-13.1
	C187.1,254.3,192.4,260.2,192.4,267.4z"/>
<path class="st5" d="M192.4,400.2c0,7.2-5.3,13.1-11.8,13.1c-6.5,0-11.8-5.9-11.8-13.1c0-7.2,5.3-13.1,11.8-13.1
	C187.1,387.1,192.4,393,192.4,400.2z"/>
<ellipse class="st5" cx="231.2" cy="97.9" rx="11.8" ry="13.1"/>
<ellipse class="st5" cx="231.2" cy="550.5" rx="11.8" ry="13.1"/>
<ellipse class="st5" cx="32.4" cy="337.3" rx="11.8" ry="13.1"/>
<g>
	<path class="st5" d="M556.3,74.3c0,0-96.7-16-129.7-10.5c-32.4,5.4-111.2,60.3-111.2,60.3"/>
	<polyline class="st5" points="317.1,104.9 307,133.7 338.1,127.6 	"/>
</g>
<g>
	<path class="st5" d="M777.6,533.7c0,0-110.9,67.1-152.9,79.9c-41.3,12.6-157.5,4.9-157.5,4.9"/>
	<polyline class="st5" points="476.6,635.2 453.3,614.2 493.4,603 	"/>
</g>
<g>
	<path class="st5" d="M544.4,389.3c0,0-85.8,51.9-118.3,61.8c-31.9,9.7-121.9,3.8-121.9,3.8"/>
	<polyline class="st5" points="311.4,467.9 293.5,451.7 324.4,442.9 	"/>
</g>
</svg>
