<?xml version="1.0" encoding="utf-8"?>
<!-- Generator: Adobe Illustrator 16.0.0, SVG Export Plug-In . SVG Version: 6.00 Build 0)  -->
<!DOCTYPE svg PUBLIC "-//W3C//DTD SVG 1.1//EN" "http://www.w3.org/Graphics/SVG/1.1/DTD/svg11.dtd">
<svg version="1.1" id="Layer_1" xmlns="http://www.w3.org/2000/svg" xmlns:xlink="http://www.w3.org/1999/xlink" x="0px" y="0px"
	 width="232.395px" height="309.859px" viewBox="0 0 232.395 309.859" enable-background="new 0 0 232.395 309.859"
	 xml:space="preserve">
<g>
	<g>
		<path fill="#64FF00" d="M229.39,309.601h-227v-307h227V309.601z M8.39,303.601h215v-295h-215V303.601z"/>
	</g>
	<g>
		<path fill="#64FF00" d="M175.39,43.601h-119v-41h119V43.601z M62.39,37.601h107v-29h-107V37.601z"/>
	</g>
	<g>
		<path fill="#64FF00" d="M175.39,309.601h-119v-41h119V309.601z M62.39,303.601h107v-29h-107V303.601z"/>
	</g>
</g>
<g>
	<g>
		<path fill="#64FF00" d="M37.084,76.36l6.297,5.112v7.076h-9.757v-3.803H18.038l7.544,2.494v6.764l11.752,0.094l6.047,4.769v17.363
			l-6.172,4.925h-14.9l-6.421-5.144v-7.887h9.695v4.24h8.042v-9.757H21.56L15.887,97.9V81.348l5.393-4.988H37.084z"/>
		<path fill="#64FF00" d="M69.316,76.36l4.894,5.05v34.695l-4.988,5.05H53.169l-5.112-5.05V81.41l5.112-5.05H69.316z
			 M57.595,112.926h7.139V84.527H50.395l7.201,3.335V112.926z"/>
		<path fill="#64FF00" d="M99.99,76.392l5.548,5.112v11.627l-9.757,0.062v-8.572H81.505l7.201,2.213v26.091h7.076v-10.318
			l9.757,0.063v13.436l-5.144,5.05H84.154l-5.268-5.175V81.504l5.112-5.112H99.99z"/>
		<path fill="#64FF00" d="M131.319,76.392l5.548,5.112v11.627l-9.757,0.062v-8.572h-14.277l7.201,2.213v26.091h7.076v-10.318
			l9.757,0.063v13.436l-5.144,5.05h-16.241l-5.268-5.175V81.504l5.112-5.112H131.319z"/>
		<path fill="#64FF00" d="M169.785,76.392v1.87l-4.458,7.201h-21.415l7.606,1.995v6.296h12.375v8.012h-12.375v10.131h13.809
			l4.458,7.326v1.933l-28.18-0.063l-0.063-44.701H169.785z"/>
		<path fill="#64FF00" d="M200.335,76.36l4.987,5.268v15.212l-4.146,4.302l6.297,16.272l3.459,1.808v1.933h-11.814l-6.172-18.485
			h-4.987v18.485h-9.538V81.13l-3.959-2.899V76.36H200.335z M187.959,94.222h7.887v-9.414h-14.683l6.796,2.837V94.222z"/>
	</g>
	<g>
		<path fill="#64FF00" d="M40.267,126.137l7.242,5.88v8.139H36.287v-4.374H18.36l8.677,2.868v7.78l13.517,0.107l6.955,5.485v19.969
			l-7.099,5.666H23.272l-7.386-5.916v-9.07h11.15v4.875h9.25v-11.221H22.412l-6.525-5.414v-19.038l6.203-5.736H40.267z"/>
		<path fill="#64FF00" d="M84.975,126.137v15.524h-1.829l-3.191-5.092h-5.342v36.786l2.796,2.08v2.223H60.452v-2.223l2.868-2.08
			v-36.786h-5.485l-3.191,5.092h-1.757v-15.524H84.975z"/>
		<path fill="#64FF00" d="M117.243,126.173l10.433,51.485h-12.584l-1.828-10.361h-8.892l-1.829,10.361h-12.19l8.927-45.928
			l-4.804-3.406v-2.15H117.243z M104.766,157.615h8.031l-3.406-21.511l-2.08-0.071L104.766,157.615z"/>
		<path fill="#64FF00" d="M162.812,126.137l5.737,6.059v17.497l-4.769,4.947l7.242,18.715l3.979,2.08v2.223h-13.588l-7.099-21.261
			h-5.736v21.261h-10.972v-46.036l-4.554-3.334v-2.151H162.812z M148.579,146.681h9.07v-10.828h-16.887l7.816,3.263V146.681z"/>
		<path fill="#64FF00" d="M204.76,126.137l7.242,5.88v8.139H200.78v-4.374h-17.927l8.677,2.868v7.78l13.517,0.107l6.955,5.485
			v19.969l-7.099,5.666h-17.138l-7.386-5.916v-9.07h11.15v4.875h9.25v-11.221h-13.875l-6.525-5.414v-19.038l6.203-5.736H204.76z"/>
	</g>
	<g>
		<path fill="#64FF00" d="M37.601,186.519l4.892,5.113v34.969l-5.176,5.24h-21.43v-45.322H37.601z M25.544,223.445h7.448v-28.594
			H18.412l7.133,2.178V223.445z"/>
		<path fill="#64FF00" d="M75.82,186.519v1.895l-4.513,7.291H49.625l7.701,2.02v6.375h12.529v8.111H57.326v10.258h13.981
			l4.513,7.416v1.957l-28.531-0.064l-0.063-45.258H75.82z"/>
		<path fill="#64FF00" d="M94.157,186.457v36.012h12.309v9.373H84.563v-40.557l-4.008-2.871v-1.957H94.157z"/>
		<path fill="#64FF00" d="M141.624,186.488v40.146l-4.986,5.207H120.1l-5.049-5.207v-35.443l-3.851-2.809v-1.895h13.382v37.021
			h7.511v-37.021H141.624z"/>
		<path fill="#64FF00" d="M180.98,231.841h-12.466l-3.504-11.078c-0.147-0.252-0.264-0.568-0.348-0.947
			c-0.105-0.357-0.199-0.842-0.283-1.451c-0.232-1.199-0.442-2.693-0.631-4.482c-0.021,0.127-0.054,0.338-0.096,0.631
			c-0.021,0.254-0.042,0.443-0.063,0.568c-0.043,0.4-0.105,0.779-0.189,1.137c-0.021,0.105-0.053,0.283-0.095,0.537
			c-0.021,0.23-0.042,0.398-0.063,0.504c-0.042,0.295-0.105,0.6-0.189,0.916c-0.021,0.105-0.053,0.264-0.094,0.473
			c-0.021,0.189-0.043,0.316-0.064,0.379c-0.041,0.295-0.115,0.547-0.221,0.758c-0.084,0.506-0.168,0.832-0.252,0.979l-3.535,11.078
			h-12.529v-1.957l3.566-2.809l7.795-18.084l-7.164-17.738l-3.566-2.871v-1.895h12.277l3.282,10.637l1.2,6.406l1.041-6.406
			l3.439-10.637h12.119v1.895l-3.566,2.871l-7.068,17.738l7.7,18.02l3.566,2.873V231.841z"/>
		<path fill="#64FF00" d="M214.308,186.519v1.895l-4.513,7.291h-21.683l7.701,2.02v6.375h12.529v8.111h-12.529v10.258h13.981
			l4.513,7.416v1.957l-28.53-0.064l-0.063-45.258H214.308z"/>
	</g>
</g>
</svg>
